<?xml version="1.0" encoding="UTF-8"?>
<svg width="17px" height="17px" viewBox="0 0 17 17" version="1.1" xmlns="http://www.w3.org/2000/svg" xmlns:xlink="http://www.w3.org/1999/xlink">
    <!-- Generator: Sketch 56.2 (81672) - https://sketch.com -->
    <title>download-thick-bottom copy</title>
    <desc>Created with Sketch.</desc>
    <g id="Page-1" stroke="none" stroke-width="1" fill="none" fill-rule="evenodd">
        <g id="download-thick-bottom-copy" fill="#7D8D9A" fill-rule="nonzero">
            <path d="M6.103,1.23320833 C6.10339069,0.664562971 6.5642713,0.203682354 7.13291667,0.203291667 L9.53558333,0.203291667 C10.1039521,0.204072796 10.5644016,0.664839209 10.5647917,1.23320833 L10.5647917,7.061375 C10.5647917,7.15917542 10.6440746,7.23845833 10.741875,7.23845833 L12.7960417,7.23845833 C13.1440584,7.21146418 13.4699067,7.41153412 13.6032905,7.7341067 C13.7366743,8.05667928 13.6472824,8.42845105 13.3818333,8.655125 L9.061,12.9759583 C8.65345751,13.3648906 8.01220916,13.3648906 7.60466667,12.9759583 L3.28383333,8.655125 C3.01739004,8.42884933 2.92733268,8.05653265 3.06090701,7.7334992 C3.19448134,7.41046576 3.52118573,7.21048007 3.869625,7.23845833 L5.92379167,7.23845833 C5.97081484,7.23864756 6.01596671,7.2200514 6.04921739,7.18680072 C6.08246806,7.15355004 6.10106423,7.10839818 6.100875,7.061375 L6.103,1.23320833 Z" id="Path"></path>
            <path d="M0,13.937875 C0.00156184372,15.5157265 1.28027354,16.7944382 2.858125,16.796 L14.141875,16.796 C15.7197265,16.7944382 16.9984382,15.5157265 17,13.937875 L17,12.6083333 C16.9865851,12.1389566 16.6022142,11.7654141 16.1326458,11.7654141 C15.6630774,11.7654141 15.2787065,12.1389566 15.2652917,12.6083333 L15.2652917,13.93575 C15.2645111,14.5558723 14.7619973,15.0583861 14.141875,15.0591667 L2.858125,15.0591667 C2.2380027,15.0583861 1.73548885,14.5558723 1.73470833,13.93575 L1.73470833,12.6083333 C1.72129346,12.1389566 1.33692257,11.7654141 0.867354167,11.7654141 C0.397785765,11.7654141 0.013414871,12.1389566 0,12.6083333 L0,13.937875 Z" id="Path"></path>
        </g>
    </g>
</svg>