<svg xmlns="http://www.w3.org/2000/svg" width="19" height="20" viewBox="0 0 19 20">
    <g fill="none" fill-rule="evenodd">
        <g fill="#7D8D9A" fill-rule="nonzero">
            <g>
                <path d="M13.854 8.708c-2.842 0-5.146 2.304-5.146 5.146S11.012 19 13.854 19 19 16.696 19 13.854c-.003-2.84-2.305-5.142-5.146-5.146zm2.67 3.85l-2.296 3.067c-.207.275-.523.447-.867.471-.343.024-.68-.102-.924-.346l-1.187-1.188c-.159-.148-.224-.37-.17-.581.053-.21.217-.375.428-.428.21-.054.433.011.581.17l1.03 1.03c.04.04.096.061.153.057.057-.004.11-.033.144-.08l2.163-2.883c.127-.17.335-.259.546-.233.21.025.391.16.475.356.083.195.056.42-.071.59l-.005-.002zM3.958 8.114h5.146c.328 0 .594-.266.594-.594 0-.328-.266-.594-.594-.594H3.958c-.328 0-.593.266-.593.594 0 .328.265.594.593.594zM3.958 10.885h2.375c.328 0 .594-.266.594-.594 0-.328-.266-.594-.594-.594H3.958c-.328 0-.593.266-.593.594 0 .328.265.594.593.594zM3.958 13.656h2.177c.328 0 .594-.266.594-.594 0-.327-.266-.593-.594-.593H3.958c-.328 0-.593.266-.593.594 0 .327.265.593.593.593zM4.156 4.947h6.73c.108 0 .197-.088.197-.197V2.375c0-.11-.088-.197-.198-.198H9.5V1.98C9.498 1.36 9.207.777 8.714.403 8.22.028 7.58-.094 6.984.07c-.87.262-1.459 1.07-1.442 1.977v.128H4.156c-.11 0-.198.09-.198.199V4.75c0 .109.09.197.198.197zm3.365-3.76c.328 0 .594.266.594.594 0 .328-.266.594-.594.594-.328 0-.594-.266-.594-.594 0-.328.266-.593.594-.593z" transform="translate(-1355 -200) translate(1355 200.667)"/>
                <path d="M8.677 17.5c-.037-.052-.096-.083-.159-.084H1.98c-.218 0-.396-.177-.396-.396V4.155c0-.218.178-.395.396-.395h.594c.109 0 .197-.089.198-.197V2.375c0-.11-.089-.197-.198-.198h-.99C.71 2.177 0 2.886 0 3.76v13.657C0 18.29.709 19 1.583 19H9.6c.083 0 .157-.052.185-.13.029-.077.006-.165-.057-.218-.396-.34-.749-.726-1.05-1.152zM14.813 7.6c.058.009.116-.008.16-.047.045-.038.07-.094.069-.152V3.759c0-.875-.71-1.583-1.584-1.583h-.99c-.052 0-.102.02-.14.058-.037.038-.057.088-.057.141v1.188c0 .109.088.197.198.197h.594c.218 0 .395.178.395.396v3.172c0 .055.023.107.062.144.04.038.093.057.147.054.063 0 .125-.006.187-.006.321.002.642.028.959.08z" transform="translate(-1355 -200) translate(1355 200.667)"/>
            </g>
        </g>
    </g>
</svg>
