<svg xmlns="http://www.w3.org/2000/svg" width="18" height="19" viewBox="0 0 18 19">
    <g fill="#7D8D9A">
        <path d="M14.55 5.795H2.796c-.111 0-.217.045-.292.126-.075.08-.112.187-.102.296L3.417 17.14c.074.796.755 1.405 1.571 1.405h7.37c.816 0 1.497-.609 1.57-1.405l1.014-10.923c.01-.108-.027-.216-.102-.296-.074-.08-.18-.126-.29-.126zM7.294 15.841c0 .32-.265.58-.591.58-.327 0-.592-.26-.592-.58V8.886c0-.32.265-.58.592-.58.326 0 .591.26.591.58v6.955zm3.943 0c0 .32-.265.58-.592.58-.326 0-.591-.26-.591-.58V8.886c0-.32.265-.58.591-.58.327 0 .592.26.592.58v6.955zM16.558 3.09h-3.745c-.109 0-.197-.086-.197-.192v-.966C12.616.865 11.733 0 10.645 0H6.702C5.614 0 4.731.865 4.731 1.932v.966c0 .051-.02.1-.058.136-.037.037-.087.057-.14.057H.789c-.435 0-.788.346-.788.773 0 .426.353.772.788.772h15.77c.436 0 .789-.346.789-.772 0-.427-.353-.773-.789-.773zm-10.25-.192v-.966c0-.214.176-.387.394-.387h3.943c.217 0 .394.173.394.387v.966c0 .106-.088.193-.197.193H6.505c-.109 0-.197-.087-.197-.193z"/>
    </g>
</svg>
